<svg xmlns="http://www.w3.org/2000/svg" viewBox="0 0 35 35"><title>ico-settings</title><path d="M17.5,11.28a6.22,6.22,0,1,0,4.4,1.82A6.18,6.18,0,0,0,17.5,11.28Zm3.1,9.32a4.39,4.39,0,1,1,1.29-3.1A4.36,4.36,0,0,1,20.6,20.6ZM22.21,4.23l1.33.55L26.9,3.05l.6-.31.47.47L31.78,7l.47.47-.31.6-1.73,3.35.55,1.33,3.59,1.15.64.21v6.72l-.64.21-3.59,1.14-.55,1.33,1.73,3.35.31.6-.47.47L28,31.78l-.47.47-.6-.31-3.35-1.73-1.33.55-1.15,3.59-.21.64H14.14l-.21-.64-1.15-3.59-1.33-.55L8.1,31.95l-.6.31L7,31.78,3.22,28l-.47-.47.31-.6,1.73-3.35-.55-1.33L.64,21.07,0,20.86V14.14l.64-.21,3.59-1.15.55-1.33L3.05,8.1l-.31-.6L3.22,7,7,3.22l.47-.47.6.31,3.35,1.73,1.33-.55L13.93.64,14.14,0h6.72l.21.64,1.15,3.59Zm1,2.41-2.12-.88-.39-.16-.13-.41L19.53,1.84H15.47L14.4,5.19l-.13.41-.39.16-2.12.88-.39.16L11,6.61,7.86,5,5,7.86,6.61,11l.19.38-.16.39-.88,2.12-.16.39-.41.13L1.84,15.47v4.05L5.19,20.6l.41.13.16.39.88,2.12.16.39L6.61,24,5,27.14,7.86,30,11,28.39l.38-.19.39.16,2.12.88.39.16.13.41,1.07,3.35h4.05l1.07-3.35.13-.41.39-.16,2.12-.88.39-.16.38.19L27.14,30,30,27.14,28.39,24l-.19-.38.16-.39.88-2.12.16-.39.41-.13,3.35-1.07V15.47L29.81,14.4l-.41-.13-.16-.39-.88-2.12-.16-.39.19-.38L30,7.86,27.14,5,24,6.61l-.38.19Z" fill="#3680ba" fill-rule="evenodd"/></svg>