<?xml version="1.0" encoding="utf-8"?>
<!-- Generator: Adobe Illustrator 21.1.0, SVG Export Plug-In . SVG Version: 6.00 Build 0)  -->
<svg version="1.1" id="Layer_1" xmlns="http://www.w3.org/2000/svg" xmlns:xlink="http://www.w3.org/1999/xlink" x="0px" y="0px"
	 viewBox="0 0 20.6 17.5" style="enable-background:new 0 0 20.6 17.5;" xml:space="preserve">
<style type="text/css">
	.st0{fill:#7F7F7F;}
</style>
<title>icon-search</title>
<path class="st0" d="M0,6.6c0,3.6,3,6.6,6.6,6.5l0,0c1.6,0,3.2-0.6,4.4-1.8l1.3,1L12,12.8l6.5,4.8l2.1-2.9l-6.5-4.7l-0.3,0.4l-1.3-1
	c0.4-0.9,0.6-1.8,0.6-2.8C13.1,3,10.2,0,6.6,0C4.5,0,2.5,1,1.3,2.7C0.4,3.8,0,5.2,0,6.6z M13.1,12.6l1.1-1.5l5.1,3.8l-1.1,1.5
	L13.1,12.6z M11.6,10.8l0.5-0.7l1.2,0.9l-0.5,0.7L11.6,10.8z M2,3.2c1.1-1.5,2.8-2.3,4.6-2.3C7.8,0.8,9,1.2,10,2
	c2.5,1.9,3,5.5,1.1,8c-1.1,1.4-2.8,2.3-4.6,2.3c-2.8,0-5.3-2.1-5.7-4.9C0.7,5.9,1.1,4.4,2,3.2z"/>
</svg>
